<svg version="1.2" xmlns="http://www.w3.org/2000/svg" xmlns:xlink="http://www.w3.org/1999/xlink" overflow="visible" preserveAspectRatio="none" viewBox="0 0 1009 152" fill="none" height="24" width="161"><g transform="translate(1, 1)"><path fill="#FF6E00" d="M435.273 115.835C422.033 115.835 410.961 111.34 402.056 102.354C393.268 93.3658 388.874 82.3079 388.874 69.1819C388.874 55.9365 393.268 44.8793 402.056 36.0099C410.961 27.0222 422.033 22.5283 435.273 22.5283C443.826 22.5283 451.618 24.5979 458.648 28.737C465.679 32.876 470.951 38.4341 474.466 45.4114L458.121 54.9904C456.129 50.7331 453.083 47.4219 448.982 45.0567C444.998 42.5733 440.37 41.3315 435.097 41.3315C427.364 41.3315 420.861 43.9924 415.589 49.314C410.433 54.6357 407.856 61.2579 407.856 69.1819C407.856 77.1049 410.433 83.727 415.589 89.049C420.861 94.3711 427.364 97.0316 435.097 97.0316C440.253 97.0316 444.881 95.7902 448.982 93.3063C453.2 90.8234 456.364 87.5119 458.473 83.3727L474.818 92.7744C471.068 99.8698 465.679 105.488 458.648 109.626C451.618 113.765 443.826 115.835 435.273 115.835ZM523.37 115.835C510.481 115.835 499.526 111.34 490.504 102.354C481.482 93.3658 476.971 82.3079 476.971 69.1819C476.971 56.0547 481.482 44.9975 490.504 36.0099C499.526 27.0222 510.481 22.5283 523.37 22.5283C536.375 22.5283 547.331 27.0222 556.236 36.0099C565.258 44.9975 569.769 56.0547 569.769 69.1819C569.769 82.3079 565.258 93.3658 556.236 102.354C547.331 111.34 536.375 115.835 523.37 115.835ZM503.861 89.2267C509.134 94.5477 515.636 97.2092 523.37 97.2092C531.103 97.2092 537.606 94.5477 542.878 89.2267C548.151 83.9046 550.787 77.223 550.787 69.1819C550.787 61.1398 548.151 54.4582 542.878 49.1366C537.606 43.8149 531.103 41.1541 523.37 41.1541C515.636 41.1541 509.134 43.8149 503.861 49.1366C498.588 54.4582 495.952 61.1398 495.952 69.1819C495.952 77.223 498.588 83.9046 503.861 89.2267ZM627.883 22.5283C637.959 22.5283 646.102 25.7804 652.312 32.2847C658.522 38.7889 661.627 47.7175 661.627 59.0707V113.529H642.646V61.0217C642.646 54.3992 640.888 49.314 637.373 45.7662C633.858 42.2184 629.054 40.4446 622.962 40.4446C616.283 40.4446 610.893 42.5733 606.792 46.8305C602.691 50.9697 600.641 57.3559 600.641 65.9885V113.529H581.659V24.8344H600.641V36.1872C606.382 27.0813 615.463 22.5283 627.883 22.5283ZM723.016 22.5283C733.093 22.5283 741.236 25.7804 747.446 32.2847C753.656 38.7889 756.761 47.7175 756.761 59.0707V113.529H737.779V61.0217C737.779 54.3992 736.022 49.314 732.507 45.7662C728.992 42.2184 724.188 40.4446 718.095 40.4446C711.416 40.4446 706.027 42.5733 701.926 46.8305C697.825 50.9697 695.774 57.3559 695.774 65.9885V113.529H676.793V24.8344H695.774V36.1872C701.516 27.0813 710.596 22.5283 723.016 22.5283ZM786.865 77.3411C788.272 84.0823 791.494 89.2852 796.532 92.952C801.57 96.4997 807.722 98.273 814.986 98.273C825.063 98.273 832.62 94.6073 837.658 87.2747L853.3 96.4997C844.63 109.39 831.8 115.835 814.81 115.835C800.516 115.835 788.975 111.46 780.187 102.708C771.399 93.8382 767.005 82.6632 767.005 69.1819C767.005 55.9365 771.341 44.8793 780.011 36.0099C788.682 27.0222 799.813 22.5283 813.404 22.5283C826.293 22.5283 836.838 27.0813 845.04 36.1872C853.359 45.2931 857.518 56.3505 857.518 69.3586C857.518 71.3691 857.284 74.0306 856.815 77.3411H786.865ZM786.69 61.7313H838.361C837.072 54.5174 834.085 49.0775 829.398 45.4114C824.828 41.7454 819.438 39.9125 813.229 39.9125C806.198 39.9125 800.34 41.8636 795.653 45.7662C790.966 49.6688 787.979 54.9904 786.69 61.7313ZM909.911 115.835C896.671 115.835 885.598 111.34 876.693 102.354C867.906 93.3658 863.512 82.3079 863.512 69.1819C863.512 55.9365 867.906 44.8793 876.693 36.0099C885.598 27.0222 896.671 22.5283 909.911 22.5283C918.464 22.5283 926.256 24.5979 933.286 28.737C940.316 32.876 945.589 38.4341 949.104 45.4114L932.759 54.9904C930.767 50.7331 927.721 47.4219 923.62 45.0567C919.636 42.5733 915.008 41.3315 909.735 41.3315C902.002 41.3315 895.499 43.9924 890.226 49.314C885.071 54.6357 882.493 61.2579 882.493 69.1819C882.493 77.1049 885.071 83.727 890.226 89.049C895.499 94.3711 902.002 97.0316 909.735 97.0316C914.891 97.0316 919.519 95.7902 923.62 93.3063C927.838 90.8234 931.001 87.5119 933.11 83.3727L949.455 92.7744C945.706 99.8698 940.316 105.488 933.286 109.626C926.256 113.765 918.464 115.835 909.911 115.835ZM1006.94 43.2828H985.144V85.8556C985.144 89.5224 985.965 92.1829 987.605 93.8382C989.245 95.3763 991.647 96.2625 994.811 96.4997C998.092 96.6178 1002.13 96.5582 1006.94 96.3221V113.529C992.409 115.303 981.981 114.061 975.654 109.803C969.327 105.428 966.163 97.4454 966.163 85.8556V43.2828H949.994V24.8344H966.163V5.67642L985.144 0V24.8344H1006.94V43.2828Z" vector-effect="non-scaling-stroke"/><path fill="url(#paint0_linear_1624335270259)" d="M196.22 33.2307C196.5 33.0816 196.782 32.9358 197.064 32.7933C185.213 47.4756 182.477 68.4558 191.767 86.273C201.852 105.616 223.008 115.28 243.24 111.506C241.747 112.546 240.177 113.508 238.531 114.382C216.328 126.175 188.858 117.568 177.174 95.1589C165.49 72.7494 174.017 45.0233 196.22 33.2307Z" vector-effect="non-scaling-stroke"/><path fill="url(#paint1_linear_1624335270259)" d="M256.96 106.697C280.549 94.1687 289.609 64.7102 277.195 40.9017C264.781 17.0928 235.595 7.94871 212.006 20.478C206.069 23.631 201.053 27.8564 197.067 32.794C219.117 21.6584 246.044 30.3284 257.58 52.4545C268.398 73.2025 261.89 98.5087 243.243 111.507C247.914 110.636 252.535 109.048 256.96 106.697Z" vector-effect="non-scaling-stroke"/><path fill="url(#paint2_linear_1624335270259)" d="M196.22 33.2307C196.5 33.0816 196.782 32.9358 197.064 32.7933C185.213 47.4756 182.477 68.4558 191.767 86.273C201.852 105.616 223.008 115.28 243.24 111.506C241.747 112.546 240.177 113.508 238.531 114.382C216.328 126.175 188.858 117.568 177.174 95.1589C165.49 72.7494 174.017 45.0233 196.22 33.2307Z" vector-effect="non-scaling-stroke"/><path fill="url(#paint3_linear_1624335270259)" d="M256.96 106.697C280.549 94.1687 289.609 64.7102 277.195 40.9017C264.781 17.0928 235.595 7.94871 212.006 20.478C206.069 23.631 201.053 27.8564 197.067 32.794C219.117 21.6584 246.044 30.3284 257.58 52.4545C268.398 73.2025 261.89 98.5087 243.243 111.507C247.914 110.636 252.535 109.048 256.96 106.697Z" vector-effect="non-scaling-stroke"/><path fill="url(#paint4_linear_1624335270259)" d="M196.22 33.2307C196.5 33.0816 196.782 32.9358 197.064 32.7933C185.213 47.4756 182.477 68.4558 191.767 86.273C201.852 105.616 223.008 115.28 243.24 111.506C241.747 112.546 240.177 113.508 238.531 114.382C216.328 126.175 188.858 117.568 177.174 95.1589C165.49 72.7494 174.017 45.0233 196.22 33.2307Z" vector-effect="non-scaling-stroke"/><path fill="url(#paint5_linear_1624335270259)" d="M256.96 106.697C280.549 94.1687 289.609 64.7102 277.195 40.9017C264.781 17.0928 235.595 7.94871 212.006 20.478C206.069 23.631 201.053 27.8564 197.067 32.794C219.117 21.6584 246.044 30.3284 257.58 52.4545C268.398 73.2025 261.89 98.5087 243.243 111.507C247.914 110.636 252.535 109.048 256.96 106.697Z" vector-effect="non-scaling-stroke"/><path fill="url(#paint6_linear_1624335270259)" d="M196.22 33.2307C196.5 33.0816 196.782 32.9358 197.064 32.7933C185.213 47.4756 182.477 68.4558 191.767 86.273C201.852 105.616 223.008 115.28 243.24 111.506C241.747 112.546 240.177 113.508 238.531 114.382C216.328 126.175 188.858 117.568 177.174 95.1589C165.49 72.7494 174.017 45.0233 196.22 33.2307Z" vector-effect="non-scaling-stroke"/><path fill="url(#paint7_linear_1624335270259)" d="M256.96 106.697C280.549 94.1687 289.609 64.7102 277.195 40.9017C264.781 17.0928 235.595 7.94871 212.006 20.478C206.069 23.631 201.053 27.8564 197.067 32.794C219.117 21.6584 246.044 30.3284 257.58 52.4545C268.398 73.2025 261.89 98.5087 243.243 111.507C247.914 110.636 252.535 109.048 256.96 106.697Z" vector-effect="non-scaling-stroke"/><path fill="url(#paint8_linear_1624335270259)" d="M199.543 36.8647C199.794 36.7317 200.045 36.6014 200.297 36.4741C189.712 49.5885 187.268 68.3286 195.566 84.2433C204.574 101.521 223.471 110.152 241.542 106.781C240.209 107.711 238.806 108.569 237.336 109.35C217.504 119.883 192.967 112.196 182.531 92.1794C172.095 72.1629 179.711 47.3981 199.543 36.8647Z" vector-effect="non-scaling-stroke"/><path fill="url(#paint9_linear_1624335270259)" d="M253.797 102.486C274.867 91.2947 282.96 64.9822 271.872 43.7163C260.784 22.45 234.714 14.2825 213.644 25.4737C208.341 28.29 203.861 32.0641 200.301 36.4745C219.996 26.5281 244.047 34.2722 254.351 54.0353C264.014 72.5681 258.201 95.1715 241.545 106.781C245.717 106.003 249.845 104.585 253.797 102.486Z" vector-effect="non-scaling-stroke"/><path fill="url(#paint10_linear_1624335270259)" d="M198.543 35.7714C198.802 35.6335 199.063 35.4986 199.324 35.3667C188.357 48.9531 185.826 68.3678 194.422 84.8547C203.755 102.755 223.332 111.697 242.053 108.205C240.672 109.168 239.219 110.057 237.696 110.866C217.15 121.779 191.73 113.815 180.918 93.0775C170.106 72.3404 177.997 46.6839 198.543 35.7714Z" vector-effect="non-scaling-stroke"/><path fill="url(#paint11_linear_1624335270259)" d="M254.749 103.753C276.578 92.1592 284.962 64.8999 273.474 42.8682C261.987 20.8363 234.979 12.3747 213.15 23.9688C207.657 26.8866 203.015 30.7965 199.327 35.3656C219.731 25.0612 244.648 33.084 255.324 53.5587C265.334 72.7584 259.312 96.1762 242.057 108.203C246.379 107.398 250.655 105.928 254.749 103.753Z" vector-effect="non-scaling-stroke"/><path fill="url(#paint12_linear_1624335270259)" d="M258.573 38.1706C258.71 38.4329 258.844 38.696 258.975 38.9598C245.504 27.883 226.254 25.3261 209.906 34.0088C192.159 43.4351 183.292 63.2088 186.755 82.1191C185.801 80.7232 184.918 79.2557 184.116 77.7175C173.296 56.9653 181.193 31.2897 201.754 20.3691C222.315 9.44859 247.754 17.4185 258.573 38.1706Z" vector-effect="non-scaling-stroke"/><path fill="url(#paint13_linear_1624335270259)" d="M191.168 94.9423C202.664 116.99 229.692 125.459 251.536 113.856C273.381 102.254 281.771 74.9742 270.275 52.9259C267.382 47.3773 263.506 42.6887 258.975 38.9636C269.192 59.5733 261.238 84.7402 240.937 95.5226C221.9 105.634 198.681 99.5508 186.756 82.1221C187.555 86.4884 189.012 90.8072 191.168 94.9423Z" vector-effect="non-scaling-stroke"/><path fill="url(#paint14_linear_1624335270259)" d="M258.573 38.1706C258.71 38.4329 258.844 38.696 258.975 38.9598C245.504 27.883 226.254 25.3261 209.906 34.0088C192.159 43.4351 183.292 63.2088 186.755 82.1191C185.801 80.7232 184.918 79.2557 184.116 77.7175C173.296 56.9653 181.193 31.2897 201.754 20.3691C222.315 9.44859 247.754 17.4185 258.573 38.1706Z" vector-effect="non-scaling-stroke"/><path fill="url(#paint15_linear_1624335270259)" d="M191.168 94.9423C202.664 116.99 229.692 125.459 251.536 113.856C273.381 102.254 281.771 74.9742 270.275 52.9259C267.382 47.3773 263.506 42.6887 258.975 38.9636C269.192 59.5733 261.238 84.7402 240.937 95.5226C221.9 105.634 198.681 99.5508 186.756 82.1221C187.555 86.4884 189.012 90.8072 191.168 94.9423Z" vector-effect="non-scaling-stroke"/><path fill="url(#paint16_linear_1624335270259)" d="M256.586 40.0231C256.714 40.2687 256.839 40.515 256.962 40.762C244.348 30.3908 226.325 27.9967 211.018 36.1263C194.401 44.9524 186.099 63.4668 189.342 81.172C188.448 79.8659 187.622 78.4913 186.871 77.051C176.74 57.6209 184.134 33.5804 203.385 23.3554C222.636 13.1304 246.455 20.5928 256.586 40.0231Z" vector-effect="non-scaling-stroke"/><path fill="url(#paint17_linear_1624335270259)" d="M193.472 93.1789C204.235 113.822 229.542 121.751 249.995 110.887C270.449 100.024 278.305 74.4815 267.541 53.838C264.832 48.6426 261.202 44.2526 256.961 40.7649C266.527 60.0616 259.079 83.6258 240.071 93.7219C222.246 103.189 200.506 97.4936 189.341 81.1752C190.089 85.2619 191.453 89.3062 193.472 93.1789Z" vector-effect="non-scaling-stroke"/><path fill="url(#paint18_linear_1624335270259)" d="M256.586 40.0231C256.714 40.2687 256.839 40.515 256.962 40.762C244.348 30.3908 226.325 27.9967 211.018 36.1263C194.401 44.9524 186.099 63.4668 189.342 81.172C188.448 79.8659 187.622 78.4913 186.871 77.051C176.74 57.6209 184.134 33.5804 203.385 23.3554C222.636 13.1304 246.455 20.5928 256.586 40.0231Z" vector-effect="non-scaling-stroke"/><path fill="url(#paint19_linear_1624335270259)" d="M193.472 93.1789C204.235 113.822 229.542 121.751 249.995 110.887C270.449 100.024 278.305 74.4815 267.541 53.838C264.832 48.6426 261.202 44.2526 256.961 40.7649C266.527 60.0616 259.079 83.6258 240.071 93.7219C222.246 103.189 200.506 97.4936 189.341 81.1752C190.089 85.2619 191.453 89.3062 193.472 93.1789Z" vector-effect="non-scaling-stroke"/><path fill="#0D0C38" d="M20.2472 76.3398C21.6807 83.2121 24.9656 88.517 30.1021 92.2545C35.2385 95.8718 41.5098 97.6795 48.9158 97.6795C59.1888 97.6795 66.8934 93.942 72.0299 86.4671L87.9768 95.8718C79.1373 109.013 66.0573 115.584 48.7367 115.584C34.1635 115.584 22.3974 111.122 13.4384 102.201C4.47947 93.1588 0 81.7658 0 68.0211C0 54.5181 4.41974 43.2454 13.2593 34.203C22.0988 25.0403 33.4467 20.4589 47.3032 20.4589C60.443 20.4589 71.1937 25.1005 79.5554 34.3839C88.0365 43.6674 92.2771 54.9401 92.2771 68.2018C92.2771 70.2517 92.0382 72.9647 91.5604 76.3398H20.2472ZM20.0681 60.4261H72.7466C71.4326 53.0713 68.3866 47.5253 63.6085 43.7879C58.9498 40.0504 53.455 38.1817 47.124 38.1817C39.9569 38.1817 33.9843 40.1709 29.2062 44.1496C24.4281 48.1282 21.382 53.5536 20.0681 60.4261Z" vector-effect="non-scaling-stroke"/><path fill="#0D0C38" d="M156.333 22.8109H176.939L142.536 116.128C133.936 139.516 123.543 149.402 89.623 149.402L98.8168 131.137C104.909 131.499 109.806 130.173 113.509 127.159C117.212 124.266 120.258 119.683 122.647 113.415L123.543 111.606L85.5576 22.8109H106.701L133.398 88.4576L156.333 22.8109Z" vector-effect="non-scaling-stroke"/><path fill="#0D0C38" d="M226.498 115.584C213.358 115.584 202.189 111.002 192.991 101.839C183.793 92.6764 179.194 81.4035 179.194 68.0211C179.194 54.6386 183.793 43.3659 192.991 34.203C202.189 25.0403 213.358 20.4589 226.498 20.4589C239.757 20.4589 250.926 25.0403 260.004 34.203C269.202 43.3659 273.801 54.6386 273.801 68.0211C273.801 81.4035 269.202 92.6764 260.004 101.839C250.926 111.002 239.757 115.584 226.498 115.584ZM206.609 88.4565C211.984 93.8825 218.614 96.5945 226.498 96.5945C234.382 96.5945 241.011 93.8825 246.386 88.4565C251.762 83.0315 254.45 76.2197 254.45 68.0211C254.45 59.8226 251.762 53.011 246.386 47.5857C241.011 42.1603 234.382 39.4476 226.498 39.4476C218.614 39.4476 211.984 42.1603 206.609 47.5857C201.233 53.011 198.546 59.8226 198.546 68.0211C198.546 76.2197 201.233 83.0315 206.609 88.4565Z" vector-effect="non-scaling-stroke"/><path fill="#0D0C38" d="M309.915 47.7665C309.915 50.7806 311.528 53.1919 314.753 55.0003C318.098 56.6882 322.1 58.1956 326.758 59.5218C331.536 60.7269 336.314 62.1742 341.093 63.8618C345.871 65.5493 349.872 68.443 353.097 72.5428C356.442 76.5205 358.114 81.5841 358.114 87.7338C358.114 96.4138 354.77 103.226 348.08 108.169C341.511 113.112 333.209 115.584 323.175 115.584C314.335 115.584 306.75 113.715 300.419 109.978C294.088 106.24 289.489 101.056 286.622 94.4245L303.286 84.6595C306.392 93.3395 313.021 97.6795 323.175 97.6795C333.328 97.6795 338.405 94.3044 338.405 87.5522C338.405 84.6595 336.732 82.3078 333.388 80.4991C330.163 78.6915 326.161 77.1836 321.383 75.9785C316.724 74.6522 312.006 73.1454 307.228 71.4568C302.45 69.7692 298.388 66.9967 295.044 63.1381C291.818 59.1595 290.206 54.1563 290.206 48.1282C290.206 39.8093 293.311 33.118 299.523 28.0544C305.854 22.9907 313.678 20.4589 322.995 20.4589C330.401 20.4589 336.971 22.1467 342.705 25.5225C348.558 28.7777 353.038 33.3592 356.143 39.2667L339.838 48.4899C336.733 41.6178 331.118 38.1817 322.995 38.1817C319.292 38.1817 316.187 39.0256 313.678 40.7135C311.17 42.2809 309.915 44.6319 309.915 47.7665Z" vector-effect="non-scaling-stroke"/><defs><linearGradient gradientUnits="userSpaceOnUse" y2="119.667" x2="207.589" y1="32.7933" x1="207.589" id="paint0_linear_1624335270259" vector-effect="non-scaling-stroke"><stop stop-color="#6EC3FA" vector-effect="non-scaling-stroke"/><stop stop-opacity="0" stop-color="#6EC3FA" offset="1" vector-effect="non-scaling-stroke"/></linearGradient><linearGradient gradientUnits="userSpaceOnUse" y2="114.383" x2="239.49" y1="14.8632" x1="239.49" id="paint1_linear_1624335270259" vector-effect="non-scaling-stroke"><stop stop-opacity="0" stop-color="#74B0F9" vector-effect="non-scaling-stroke"/><stop stop-color="#74B0F9" offset="1" vector-effect="non-scaling-stroke"/></linearGradient><linearGradient gradientUnits="userSpaceOnUse" y2="119.667" x2="207.589" y1="32.7933" x1="207.589" id="paint2_linear_1624335270259" vector-effect="non-scaling-stroke"><stop stop-color="#6EC3FA" vector-effect="non-scaling-stroke"/><stop stop-opacity="0" stop-color="#6EC3FA" offset="1" vector-effect="non-scaling-stroke"/></linearGradient><linearGradient gradientUnits="userSpaceOnUse" y2="114.383" x2="239.49" y1="14.8632" x1="239.49" id="paint3_linear_1624335270259" vector-effect="non-scaling-stroke"><stop stop-opacity="0" stop-color="#681CFF" vector-effect="non-scaling-stroke"/><stop stop-color="#9666F6" offset="1" vector-effect="non-scaling-stroke"/></linearGradient><linearGradient gradientUnits="userSpaceOnUse" y2="119.667" x2="207.589" y1="32.7933" x1="207.589" id="paint4_linear_1624335270259" vector-effect="non-scaling-stroke"><stop stop-color="#6EC3FA" vector-effect="non-scaling-stroke"/><stop stop-opacity="0" stop-color="#6EC3FA" offset="1" vector-effect="non-scaling-stroke"/></linearGradient><linearGradient gradientUnits="userSpaceOnUse" y2="114.383" x2="239.49" y1="14.8632" x1="239.49" id="paint5_linear_1624335270259" vector-effect="non-scaling-stroke"><stop stop-opacity="0" stop-color="#74B0F9" vector-effect="non-scaling-stroke"/><stop stop-color="#74B0F9" offset="1" vector-effect="non-scaling-stroke"/></linearGradient><linearGradient gradientUnits="userSpaceOnUse" y2="119.667" x2="207.589" y1="32.7933" x1="207.589" id="paint6_linear_1624335270259" vector-effect="non-scaling-stroke"><stop stop-color="#6EC3FA" vector-effect="non-scaling-stroke"/><stop stop-opacity="0" stop-color="#6EC3FA" offset="1" vector-effect="non-scaling-stroke"/></linearGradient><linearGradient gradientUnits="userSpaceOnUse" y2="114.383" x2="239.49" y1="14.8632" x1="239.49" id="paint7_linear_1624335270259" vector-effect="non-scaling-stroke"><stop stop-opacity="0" stop-color="#681CFF" vector-effect="non-scaling-stroke"/><stop stop-color="#9666F6" offset="1" vector-effect="non-scaling-stroke"/></linearGradient><linearGradient gradientUnits="userSpaceOnUse" y2="114.07" x2="209.698" y1="36.4741" x1="209.698" id="paint8_linear_1624335270259" vector-effect="non-scaling-stroke"><stop stop-color="#6EC3FA" vector-effect="non-scaling-stroke"/><stop stop-opacity="0" stop-color="#6EC3FA" offset="1" vector-effect="non-scaling-stroke"/></linearGradient><linearGradient gradientUnits="userSpaceOnUse" y2="109.35" x2="238.194" y1="20.4586" x1="238.194" id="paint9_linear_1624335270259" vector-effect="non-scaling-stroke"><stop stop-opacity="0" stop-color="#74B0F9" vector-effect="non-scaling-stroke"/><stop stop-color="#74B0F9" offset="1" vector-effect="non-scaling-stroke"/></linearGradient><linearGradient gradientUnits="userSpaceOnUse" y2="115.757" x2="209.063" y1="35.3667" x1="209.063" id="paint10_linear_1624335270259" vector-effect="non-scaling-stroke"><stop stop-opacity="0" stop-color="#6EC3FA" vector-effect="non-scaling-stroke"/><stop stop-color="#6EC3FA" offset="1" vector-effect="non-scaling-stroke"/></linearGradient><linearGradient gradientUnits="userSpaceOnUse" y2="110.865" x2="238.584" y1="18.7732" x1="238.584" id="paint11_linear_1624335270259" vector-effect="non-scaling-stroke"><stop stop-opacity="0" stop-color="#681CFF" vector-effect="non-scaling-stroke"/><stop stop-color="#9666F6" offset="1" vector-effect="non-scaling-stroke"/></linearGradient><linearGradient gradientUnits="userSpaceOnUse" y2="48.797" x2="179.268" y1="48.797" x1="258.975" id="paint12_linear_1624335270259" vector-effect="non-scaling-stroke"><stop stop-color="#6EC3FA" vector-effect="non-scaling-stroke"/><stop stop-opacity="0" stop-color="#6EC3FA" offset="1" vector-effect="non-scaling-stroke"/></linearGradient><linearGradient gradientUnits="userSpaceOnUse" y2="78.6148" x2="184.117" y1="78.6148" x1="275.427" id="paint13_linear_1624335270259" vector-effect="non-scaling-stroke"><stop stop-opacity="0" stop-color="#74B0F9" vector-effect="non-scaling-stroke"/><stop stop-color="#74B0F9" offset="1" vector-effect="non-scaling-stroke"/></linearGradient><linearGradient gradientUnits="userSpaceOnUse" y2="48.797" x2="179.268" y1="48.797" x1="258.975" id="paint14_linear_1624335270259" vector-effect="non-scaling-stroke"><stop stop-color="#6EC3FA" vector-effect="non-scaling-stroke"/><stop stop-opacity="0" stop-color="#6EC3FA" offset="1" vector-effect="non-scaling-stroke"/></linearGradient><linearGradient gradientUnits="userSpaceOnUse" y2="78.6148" x2="184.117" y1="78.6148" x1="275.427" id="paint15_linear_1624335270259" vector-effect="non-scaling-stroke"><stop stop-opacity="0" stop-color="#681CFF" vector-effect="non-scaling-stroke"/><stop stop-color="#9666F6" offset="1" vector-effect="non-scaling-stroke"/></linearGradient><linearGradient gradientUnits="userSpaceOnUse" y2="49.9726" x2="182.331" y1="49.9726" x1="256.962" id="paint16_linear_1624335270259" vector-effect="non-scaling-stroke"><stop stop-color="#6EC3FA" vector-effect="non-scaling-stroke"/><stop stop-opacity="0" stop-color="#6EC3FA" offset="1" vector-effect="non-scaling-stroke"/></linearGradient><linearGradient gradientUnits="userSpaceOnUse" y2="77.891" x2="186.87" y1="77.891" x1="272.364" id="paint17_linear_1624335270259" vector-effect="non-scaling-stroke"><stop stop-opacity="0" stop-color="#74B0F9" vector-effect="non-scaling-stroke"/><stop stop-color="#74B0F9" offset="1" vector-effect="non-scaling-stroke"/></linearGradient><linearGradient gradientUnits="userSpaceOnUse" y2="49.9726" x2="182.331" y1="49.9726" x1="256.962" id="paint18_linear_1624335270259" vector-effect="non-scaling-stroke"><stop stop-color="#6EC3FA" vector-effect="non-scaling-stroke"/><stop stop-opacity="0" stop-color="#6EC3FA" offset="1" vector-effect="non-scaling-stroke"/></linearGradient><linearGradient gradientUnits="userSpaceOnUse" y2="77.891" x2="186.87" y1="77.891" x1="272.364" id="paint19_linear_1624335270259" vector-effect="non-scaling-stroke"><stop stop-opacity="0" stop-color="#681CFF" vector-effect="non-scaling-stroke"/><stop stop-color="#9666F6" offset="1" vector-effect="non-scaling-stroke"/></linearGradient></defs></g></svg>