<svg version="1.2" xmlns="http://www.w3.org/2000/svg" xmlns:xlink="http://www.w3.org/1999/xlink" overflow="visible" preserveAspectRatio="none" viewBox="0 0 24 24" width="22" height="22"><g><path xmlns:default="http://www.w3.org/2000/svg" id="long-arrow-up" d="M15.92,7.11l-3.7-4c-0.05-0.06-0.13-0.1-0.21-0.11c-0.09,0-0.18,0.04-0.24,0.1l-3.64,4  C8.02,7.18,7.97,7.33,8.01,7.47c0.04,0.13,0.17,0.21,0.3,0.2h2.33v13c-0.01,0.18,0.13,0.33,0.31,0.33c0.02,0,0.04,0,0.06,0h2  c0.18,0.01,0.32-0.13,0.33-0.31c0-0.01,0-0.01,0-0.02v-13h2.33c0.13,0,0.25-0.08,0.3-0.2C16.03,7.35,16.01,7.21,15.92,7.11z" style="fill: rgb(53, 201, 48);" vector-effect="non-scaling-stroke"/></g></svg>